# xmcd
#
# Track frame offsets:
#	150
#	9850
#	22817
#	34287
#	47765
#	59699
#	70810
#	83367
#	96296
#	108883
#	119265
#	132907
#	144289
#	154861
#	169390
#	179223
#	189446
#	202057
#	214283
#	225258
#	234474
#	247810
#	262111
#	274220
#	284312
#
# Disc length: 3916 seconds
#
# Revision: 0
# Processed by: cddbd v1.5.2PL0 Copyright (c) Steve Scherf et al.
# Submitted via: EZCDAudioConverter 1.0.6.1
#
DISCID=630f4a19
DTITLE=Various Artist - Louisiana Swamp Blues CD D
DYEAR=2014
DGENRE=blues
TTITLE0=Guitar Gable - Guitar rhumbo
TTITLE1=Clarence Garlow - Pretty little dollie
TTITLE2=Lonesome Sundown - Lost without love 
TTITLE3=Cookie and the Cupcakes - I'm twisted 
TTITLE4=Hop Wilson - Be careful with the blues
TTITLE5=Silas Hogan - Trouble at home blues
TTITLE6=Charles Sheffield - Cool cat
TTITLE7=Boogie Jake - If I only had a chance
TTITLE8=Boozoo Chavis - Long black curly hair
TTITLE9=Guitar Gable s. King Karl - Walking in the park (with Sally)
TTITLE10=Clarence Garlow - Carry on
TTITLE11=Jimmy Dotson - My poor heart in pain
TTITLE12=Guitar Jr. - Roll, roll, roll
TTITLE13=Blue Charlie - Miss my Lagnion
TTITLE14=Ashton Savoy - Juke joint
TTITLE15=Good Rockin' Rob - Say you remember
TTITLE16=Tal Miller - Life's journey
TTITLE17=Left Hand Charlie - Honey bee
TTITLE18=Hop Wilson - Always be in love with you
TTITLE19=Charles Sheffield - I would be a sinner
TTITLE20=Lonesome Sundown - No use to worry
TTITLE21=Boozoo Chavis - Oh! Babe
TTITLE22=Mr Calhoun - Hello friends, hello pal
TTITLE23=Leroy Washington - My Chinatown gal
TTITLE24=Jay Nelson and The Jumpers - Don't you want a man like me
EXTD=
EXTT0=
EXTT1=
EXTT2=
EXTT3=
EXTT4=
EXTT5=
EXTT6=
EXTT7=
EXTT8=
EXTT9=
EXTT10=
EXTT11=
EXTT12=
EXTT13=
EXTT14=
EXTT15=
EXTT16=
EXTT17=
EXTT18=
EXTT19=
EXTT20=
EXTT21=
EXTT22=
EXTT23=
EXTT24=
PLAYORDER=
